<svg width="36" height="36" viewBox="0 0 36 36" fill="none" xmlns="http://www.w3.org/2000/svg">
<path fill-rule="evenodd" clip-rule="evenodd" d="M18.9278 0.0247687C28.4377 0.507606 36 8.37024 36 18C35.9999 27.9407 27.9412 35.9998 18.0003 36C8.37031 36 0.506832 28.4372 0.0240812 18.9275L0 18C2.87538e-07 17.8807 0.00181704 17.7617 0.0041282 17.6429L0 17.4613C8.60992e-08 13.679 1.2824 10.196 3.43535 7.42306C6.70765 2.92495 12.0122 2.27665e-09 18.0003 0L18.9278 0.0247687ZM27.8977 20.8794C27.4297 20.165 26.4702 19.9663 25.7565 20.4349C21.0319 23.5373 14.9268 23.5372 10.2029 20.4349C9.48981 19.9666 8.53154 20.1643 8.06307 20.8773C7.59235 21.5926 7.79424 22.5505 8.50548 23.0184C11.3825 24.9074 14.6817 25.8531 17.9797 25.8531C21.2776 25.853 24.576 24.9083 27.4532 23.0184C28.1662 22.5505 28.3646 21.5932 27.897 20.8801L27.8977 20.8794Z" fill="#0E4FC5"/>
</svg>
