<svg width="1920" height="1082" viewBox="0 0 1920 1082" fill="none" xmlns="http://www.w3.org/2000/svg">
<path d="M1920 1082H43.4795C29.0893 1081 14.601 1080.01 0 1079V10.5703C33.6486 55.8067 49.6571 107.471 29.7861 150.657C71.1001 60.8159 228.527 167.6 204.609 220.856C219.867 186.922 262.013 198.96 306.625 222.813C392.007 268.465 403.024 347.285 390.412 417.459C534.041 433.221 735.238 524.118 717.856 639.692C779.024 632.721 968.02 645.439 1113.15 666.245C1147.96 640.529 1189.72 621.831 1224.18 622.42C1188.47 495.667 1398.55 381.801 1555.41 354.907C1531.56 278.089 1532.65 190.183 1620.76 134.055C1666.79 104.728 1711.77 88.6417 1733.44 125.17C1699.44 67.8531 1858.74 -60.639 1917.13 36.0273C1910.24 24.636 1905.68 12.5399 1903.16 0H1920V1082Z" fill="#22375F"/>
</svg>
