<svg width="143" height="85" viewBox="0 0 143 85" fill="none" xmlns="http://www.w3.org/2000/svg">
<g clip-path="url(#clip0_14840_538)">
<path d="M75.3373 39.0067C71.8541 41.782 72.031 47.1375 75.6977 49.6926C84.6062 55.9023 99.1411 64.8677 103.054 60.3084C106.777 55.9691 91.2035 44.1399 83.4595 38.6761C81.034 36.965 77.782 37.0586 75.4698 38.9017C75.4262 38.9361 75.3819 38.972 75.3373 39.0067Z" fill="#008EE6"/>
<path d="M100.661 63.8666C103.249 64.3115 105.618 63.0669 105.953 61.0869C106.288 59.1068 104.461 57.1411 101.873 56.6962C99.285 56.2514 96.9157 57.4959 96.5811 59.4759C96.2464 61.456 98.0731 63.4218 100.661 63.8666Z" fill="#008EE6"/>
<path d="M42.7034 44.9117C40.9782 49.0138 35.7622 50.3169 32.2939 47.5046C23.8656 40.6726 11.2393 29.2051 14.5684 24.2009C17.7371 19.4384 33.4107 31.1142 40.8008 37.035C43.1153 38.8895 43.9145 42.0326 42.7685 44.7558C42.7471 44.807 42.7247 44.8593 42.7034 44.9117Z" fill="#008EE6"/>
<path d="M17.1227 30.1766C18.9442 29.311 19.4993 26.6997 18.3624 24.3441C17.2255 21.9884 14.8272 20.7805 13.0057 21.6462C11.1842 22.5118 10.6291 25.1231 11.766 27.4787C12.9029 29.8343 15.3012 31.0422 17.1227 30.1766Z" fill="#008EE6"/>
<path d="M10.9222 13.2577L11.6938 12.9031L20.458 31.7659L19.6863 32.1205L10.9222 13.2577Z" fill="#9CE25E"/>
<g clip-path="url(#clip1_14840_538)">
<path d="M16.3262 1.43923C17.1547 4.44949 15.392 8.39599 11.6616 10.7558C7.33428 9.80629 4.30115 6.69739 4.0278 3.59035C3.8659 1.75952 4.71774 -0.273559 6.45496 -0.537886C7.87435 -0.753951 9.49499 0.00850415 10.1764 2.51462C9.94068 -0.0699455 11.1967 -1.33471 12.6047 -1.61328C14.3285 -1.95427 15.8378 -0.334807 16.3262 1.43923Z" fill="#9CE25E"/>
<path d="M11.6148 11.0932C12.9649 15.2958 11.7879 19.4552 9.22229 21.2333C7.70978 22.2821 5.5119 22.5576 4.40794 21.1917C3.50603 20.0749 3.35377 18.2999 5.19181 16.4669C3.06115 17.9538 1.32857 17.5011 0.377452 16.4253C-0.786703 15.1082 -0.136925 13.0034 1.16132 11.7005C3.36261 9.49116 7.68395 9.05009 11.6148 11.0932Z" fill="#9CE25E"/>
<path d="M21.8501 8.08283C23.523 8.86559 24.8694 10.622 24.2361 12.2523C23.7186 13.5851 22.2502 14.5977 19.7308 13.9246C22.0972 15.0222 22.5737 16.7397 22.1168 18.0941C21.5572 19.7522 19.3982 20.2375 17.6115 19.7664C14.5813 18.9666 12.0231 15.46 11.8237 11.0573C14.7995 7.80519 19.0111 6.75387 21.8501 8.08283Z" fill="#9CE25E"/>
</g>
<path d="M37.1819 51.1902C37.1819 51.1902 35.8294 66.9223 39.9307 74.9382C40.6581 76.3594 42.1352 77.2181 43.71 77.2181H51.2617C53.2731 77.2181 55.0162 75.8003 55.4596 73.8033L59.1984 56.9741L37.1819 51.1902Z" fill="#008EE6"/>
<path d="M80.1923 51.1902C80.1923 51.1902 81.5448 66.9223 77.4435 74.9382C76.7161 76.3594 75.239 77.2181 73.6642 77.2181H66.1125C64.1011 77.2181 62.358 75.8003 61.9146 73.8033L58.1758 56.9741L80.1923 51.1902Z" fill="#008EE6"/>
<path d="M93.347 49.4584C93.2591 50.344 93.1432 51.2203 92.9997 52.0851C91.9529 58.4311 86.1448 62.7663 80.0305 61.7278L28.8092 53.028C22.8321 52.0129 18.8029 46.1119 19.8551 39.9137C23.4885 18.694 43.2617 4.39948 63.7536 8.38387C82.3313 11.9968 95.2906 29.9346 93.347 49.4584Z" fill="#59BDE2"/>
<path d="M47.319 34.7717C48.2133 32.6764 47.2287 30.2589 45.1199 29.3722C43.011 28.4855 40.5765 29.4653 39.6822 31.5606C38.7879 33.656 39.7725 36.0734 41.8814 36.9602C43.9902 37.8469 46.4247 36.8671 47.319 34.7717Z" fill="#39A7DA"/>
<path d="M75.2919 41.5187C77.1624 40.2032 77.6051 37.6332 76.2807 35.7783C74.9563 33.9234 72.3663 33.4861 70.4958 34.8015C68.6253 36.1169 68.1825 38.6869 69.5069 40.5418C70.8313 42.3967 73.4213 42.8341 75.2919 41.5187Z" fill="#39A7DA"/>
<path d="M63.8041 36.1314C66.0612 36.5131 68.2038 35.0037 68.5897 32.7599C68.9756 30.5162 67.4587 28.3878 65.2016 28.0061C62.9445 27.6244 60.8019 29.1339 60.416 31.3776C60.0301 33.6213 61.547 35.7497 63.8041 36.1314Z" fill="white"/>
<path d="M64.026 34.8424C65.567 35.103 67.0298 34.0725 67.2932 32.5406C67.5567 31.0088 66.5211 29.5557 64.9801 29.2951C63.4391 29.0345 61.9764 30.065 61.7129 31.5969C61.4494 33.1287 62.4851 34.5818 64.026 34.8424Z" fill="black"/>
<path d="M52.746 34.2532C55.0031 34.635 57.1457 33.1255 57.5316 30.8817C57.9175 28.638 56.4006 26.5096 54.1435 26.1279C51.8864 25.7462 49.7438 27.2557 49.3579 29.4994C48.972 31.7432 50.4889 33.8715 52.746 34.2532Z" fill="white"/>
<path d="M52.9679 32.9642C54.5089 33.2248 55.9717 32.1943 56.2351 30.6624C56.4986 29.1306 55.463 27.6775 53.922 27.4169C52.381 27.1563 50.9183 28.1869 50.6548 29.7187C50.3913 31.2506 51.427 32.7036 52.9679 32.9642Z" fill="black"/>
<path d="M57.4055 40.2827C52.3031 39.4178 47.4513 37.0989 43.4982 33.4372C43.182 33.1436 43.1639 32.6516 43.4592 32.3372C43.7534 32.0226 44.2495 32.0048 44.5657 32.2984C52.0141 39.1978 62.8539 41.0354 72.1806 36.9798C72.5769 36.807 73.0389 36.9872 73.2116 37.3809C73.3854 37.7749 73.2041 38.2342 72.808 38.4059C67.8575 40.5582 62.5067 41.1475 57.4044 40.2825L57.4055 40.2827Z" fill="black"/>
<g clip-path="url(#clip2_14840_538)">
<path d="M103.304 60.5892C103.304 60.5892 85.6386 47.1064 82.198 51.2722C79.2634 54.8257 96.8333 65.9745 96.8333 65.9745C96.8333 65.9745 100.965 62.5677 103.303 60.5895L103.304 60.5892Z" fill="#DB4F81"/>
<path d="M124.678 51.4998C124.678 51.4998 143.469 63.341 140.818 68.0554C138.556 72.0766 121.968 59.4973 121.968 59.4973C121.968 59.4973 123.669 54.4019 124.678 51.5005V51.4998Z" fill="#DB4F81"/>
<path d="M142.713 69.3255C143.447 67.9429 142.711 66.1062 141.069 65.2231C139.427 64.34 137.5 64.745 136.766 66.1276C136.032 67.5102 136.768 69.3469 138.41 70.2299C140.052 71.113 141.978 70.7081 142.713 69.3255Z" fill="#DB4F81"/>
<path d="M139.553 63.9914C139.553 63.9914 141.64 63.8798 142.509 64.9018C143.38 65.923 142.049 66.6676 140.817 66.3518C139.585 66.036 139.214 65.2321 139.553 63.9921V63.9914Z" fill="#DB4F81"/>
<path d="M101.762 69.0194C101.762 69.0194 100.943 78.6784 103.426 83.5999C103.866 84.4727 104.761 84.9999 105.714 84.9999H110.285C111.503 84.9999 112.558 84.1294 112.827 82.9031L115.09 72.5706L101.761 69.0194H101.762Z" fill="#DB4F81"/>
<path d="M127.132 69.0194C127.132 69.0194 127.95 78.6784 125.468 83.5999C125.027 84.4727 124.132 84.9999 123.18 84.9999H118.608C117.39 84.9999 116.335 84.1294 116.066 82.9031L113.803 72.5706L127.132 69.0194H127.132Z" fill="#DB4F81"/>
<path d="M125.836 35.7894C121.123 35.7894 117.274 39.4731 116.953 44.1346H111.941C111.62 39.4731 107.77 35.7894 103.057 35.7894C98.1328 35.7894 94.1411 39.8063 94.1411 44.7611V66.5612C94.1411 71.6073 98.2062 75.698 103.221 75.698H125.672C130.687 75.698 134.752 71.6073 134.752 66.5612V44.7611C134.752 39.8063 130.76 35.7894 125.836 35.7894Z" fill="#F38FB1"/>
<path d="M105.036 60.0419C106.423 60.0419 107.548 58.9102 107.548 57.5142C107.548 56.1182 106.423 54.9865 105.036 54.9865C103.649 54.9865 102.524 56.1182 102.524 57.5142C102.524 58.9102 103.649 60.0419 105.036 60.0419Z" fill="#F16689"/>
<path d="M123.088 60.0419C124.475 60.0419 125.599 58.9102 125.599 57.5142C125.599 56.1182 124.475 54.9865 123.088 54.9865C121.7 54.9865 120.576 56.1182 120.576 57.5142C120.576 58.9102 121.7 60.0419 123.088 60.0419Z" fill="#F16689"/>
<path d="M117.457 57.218C118.844 57.218 119.969 56.0862 119.969 54.6902C119.969 53.2942 118.844 52.1625 117.457 52.1625C116.069 52.1625 114.945 53.2942 114.945 54.6902C114.945 56.0862 116.069 57.218 117.457 57.218Z" fill="white"/>
<path d="M117.457 56.4162C118.404 56.4162 119.172 55.6434 119.172 54.6902C119.172 53.737 118.404 52.9642 117.457 52.9642C116.51 52.9642 115.742 53.737 115.742 54.6902C115.742 55.6434 116.51 56.4162 117.457 56.4162Z" fill="black"/>
<path d="M110.666 57.218C112.053 57.218 113.178 56.0862 113.178 54.6902C113.178 53.2942 112.053 52.1625 110.666 52.1625C109.279 52.1625 108.154 53.2942 108.154 54.6902C108.154 56.0862 109.279 57.218 110.666 57.218Z" fill="white"/>
<path d="M110.666 56.4162C111.614 56.4162 112.381 55.6434 112.381 54.6902C112.381 53.737 111.614 52.9642 110.666 52.9642C109.719 52.9642 108.951 53.737 108.951 54.6902C108.951 55.6434 109.719 56.4162 110.666 56.4162Z" fill="black"/>
<path d="M114.062 61.2022C110.928 61.2022 107.794 60.299 105.06 58.4912C104.841 58.3464 104.78 58.0509 104.924 57.8307C105.068 57.6105 105.362 57.5489 105.581 57.6938C110.732 61.1001 117.391 61.1001 122.543 57.6938C122.762 57.5489 123.057 57.6105 123.2 57.8307C123.344 58.0509 123.283 58.3471 123.064 58.4912C120.329 60.2983 117.195 61.2022 114.062 61.2022Z" fill="black"/>
<path d="M80.7615 53.1001C81.5385 54.6348 83.4599 55.2169 85.053 54.4002C86.6462 53.5835 87.3078 51.6772 86.5308 50.1425C85.7539 48.6077 83.8325 48.0256 82.2394 48.8423C80.6462 49.6591 79.9846 51.5653 80.7615 53.1001Z" fill="#DB4F81"/>
</g>
</g>
<defs>
<clipPath id="clip0_14840_538">
<rect width="143" height="85" fill="white"/>
</clipPath>
<clipPath id="clip1_14840_538">
<rect width="24.5803" height="29.0764" fill="white" transform="matrix(0.959384 0.282104 -0.281532 0.959552 4.59131 -5.1145)"/>
</clipPath>
<clipPath id="clip2_14840_538">
<rect width="64.7969" height="49.2105" fill="white" transform="translate(78.2031 35.7894)"/>
</clipPath>
</defs>
</svg>
