<svg width="394" height="32" viewBox="0 0 394 32" fill="none" xmlns="http://www.w3.org/2000/svg">
<path d="M7.91993 30.4644C7.77312 30.8559 7.46725 31.0517 7.00233 31.0517H0.689222C0.395589 31.0517 0.187599 30.966 0.0652518 30.7948C-0.0326259 30.6479 -0.0203912 30.4399 0.101956 30.1708L8.76413 2.82622C8.91094 2.43471 9.20458 2.23895 9.64503 2.23895H14.8203C15.3831 2.23895 15.5911 2.53258 15.4443 3.11985L7.91993 30.4644ZM18.5641 31.0517C18.0992 31.0517 17.8178 30.8559 17.7199 30.4644L16.8023 26.9041H10.9297C10.636 26.9041 10.428 26.8307 10.3057 26.6839C10.1834 26.5126 10.1711 26.2924 10.269 26.0232L11.627 21.0682C11.7739 20.6032 12.0553 20.3708 12.4712 20.3708H15.1139L13.6458 14.6816C13.5479 14.388 13.5601 14.0454 13.6825 13.6539L16.3252 4.07416C16.4231 3.73159 16.5821 3.5603 16.8023 3.5603C17.0226 3.5603 17.1938 3.73159 17.3162 4.07416L25.6847 30.2075C25.9294 30.7703 25.7459 31.0517 25.1342 31.0517H18.5641Z" fill="#10254A"/>
<path d="M36.078 30.2809C36.078 30.7948 35.8333 31.0517 35.3439 31.0517H29.1042C28.6148 31.0517 28.3701 30.7948 28.3701 30.2809V2.93633C28.3701 2.47141 28.6148 2.23895 29.1042 2.23895H35.3072C35.8211 2.23895 36.078 2.47141 36.078 2.93633V30.2809Z" fill="#10254A"/>
<path d="M70.5079 31.2352C69.9941 31.2352 69.7371 30.9905 69.7371 30.5011V2.05543C69.7371 1.54157 69.9941 1.28464 70.5079 1.28464H75.7566C76.2705 1.28464 76.5274 1.54157 76.5274 2.05543V30.5011C76.5274 30.9905 76.2705 31.2352 75.7566 31.2352H70.5079ZM49.1828 30.1341C48.9137 30.183 48.7179 30.1341 48.5956 29.9873C48.4977 29.8404 48.4487 29.6447 48.4487 29.4V24.6285C48.4487 24.3838 48.5099 24.2247 48.6323 24.1513C48.7791 24.0534 48.9626 23.9678 49.1828 23.8944C52.4617 22.8422 54.9576 20.9948 56.6705 18.3521C58.4078 15.7094 59.2764 12.1368 59.2764 7.63446H48.8158C48.3264 7.63446 48.0817 7.38976 48.0817 6.90037V2.75281C48.0817 2.26342 48.3264 2.01873 48.8158 2.01873H65.8832C66.397 2.01873 66.654 2.27566 66.654 2.78951V6.82697C66.654 10.0569 66.2502 12.981 65.4427 15.5993C64.6597 18.2175 63.5219 20.5176 62.0293 22.4996C60.5366 24.4816 58.7014 26.1211 56.5236 27.418C54.3703 28.6904 51.9234 29.5958 49.1828 30.1341Z" fill="#10254A"/>
<path d="M81.2186 18.2419C80.7292 18.2419 80.4846 17.9973 80.4846 17.5079V2.38577C80.4846 1.89638 80.7292 1.65169 81.2186 1.65169H86.3572C86.8466 1.65169 87.0913 1.89638 87.0913 2.38577V13.2135H92.4501V9.54307H88.9632C88.4493 9.54307 88.1924 9.28614 88.1924 8.77228V5.21199C88.1924 4.7226 88.4493 4.4779 88.9632 4.4779H92.4501V2.38577C92.4501 1.89638 92.707 1.65169 93.2209 1.65169H98.286C98.7999 1.65169 99.0568 1.89638 99.0568 2.38577V17.5079C99.0568 17.9973 98.7999 18.2419 98.286 18.2419H81.2186ZM107.829 24.9955C108.319 24.9955 108.563 25.2402 108.563 25.7296V30.1341C108.563 30.6235 108.319 30.8682 107.829 30.8682H82.2831C81.7937 30.8682 81.549 30.6235 81.549 30.1341V21.9858C81.549 21.4964 81.7937 21.2517 82.2831 21.2517H87.8254C88.3148 21.2517 88.5594 21.4964 88.5594 21.9858V24.9955H107.829ZM102.213 21.2884C101.7 21.2884 101.443 21.0437 101.443 20.5543V2.05543C101.443 1.54157 101.7 1.28464 102.213 1.28464H107.462C107.976 1.28464 108.233 1.54157 108.233 2.05543V8.22172H109.958C110.447 8.22172 110.692 8.47865 110.692 8.99251V13.2869C110.692 13.7763 110.447 14.021 109.958 14.021H108.233V20.5543C108.233 21.0437 107.976 21.2884 107.462 21.2884H102.213Z" fill="#10254A"/>
<path d="M122.778 13.8742C122.289 13.8742 122.044 13.6295 122.044 13.1401V8.11161C122.044 7.62222 122.289 7.37753 122.778 7.37753H128.21C128.724 7.37753 128.981 7.62222 128.981 8.11161V9.24944H142.672V6.2764H122.448C121.934 6.2764 121.677 6.01947 121.677 5.50562V2.42247C121.677 1.93308 121.934 1.68839 122.448 1.68839H148.838C149.352 1.68839 149.609 1.93308 149.609 2.42247V13.1401C149.609 13.6295 149.352 13.8742 148.838 13.8742H122.778ZM139.772 20.9581V22.9768C139.772 23.4662 139.527 23.7109 139.038 23.7109H133.385C132.896 23.7109 132.651 23.4662 132.651 22.9768V20.9581H122.117C121.603 20.9581 121.347 20.7011 121.347 20.1873V16.4067C121.347 15.9174 121.603 15.6727 122.117 15.6727H149.535C150.049 15.6727 150.306 15.9174 150.306 16.4067V20.1873C150.306 20.7011 150.049 20.9581 149.535 20.9581H139.772ZM149.205 26.0232C149.694 26.0232 149.939 26.2679 149.939 26.7573V30.3176C149.939 30.807 149.694 31.0517 149.205 31.0517H122.594C122.105 31.0517 121.86 30.807 121.86 30.3176V23.9678C121.86 23.4784 122.105 23.2337 122.594 23.2337H128.21C128.724 23.2337 128.981 23.4784 128.981 23.9678V26.0232H149.205Z" fill="#10254A"/>
<path d="M177.387 31.2352C176.897 31.2352 176.653 30.9905 176.653 30.5011V19.0494H174.671V30.1341C174.671 30.6235 174.426 30.8682 173.937 30.8682H169.716C169.226 30.8682 168.982 30.6235 168.982 30.1341V2.27565C168.982 1.7618 169.226 1.50487 169.716 1.50487H173.937C174.426 1.50487 174.671 1.7618 174.671 2.27565V12.8097H176.653V2.05543C176.653 1.54157 176.897 1.28464 177.387 1.28464H181.645C182.134 1.28464 182.379 1.54157 182.379 2.05543V30.5011C182.379 30.9905 182.134 31.2352 181.645 31.2352H177.387ZM167.22 21.7288C167.22 23.3438 167.049 24.7263 166.706 25.8764C166.363 27.002 165.898 27.9196 165.311 28.6292C164.724 29.3388 164.014 29.8649 163.182 30.2075C162.375 30.5256 161.494 30.6846 160.54 30.6846C159.585 30.6846 158.704 30.5256 157.897 30.2075C157.089 29.8649 156.392 29.3388 155.805 28.6292C155.218 27.9196 154.753 27.002 154.41 25.8764C154.092 24.7263 153.933 23.3438 153.933 21.7288V19.8569C153.933 18.2419 154.104 16.8717 154.447 15.7461C154.789 14.596 155.254 13.6662 155.842 12.9566C156.429 12.2469 157.126 11.7331 157.934 11.415C158.766 11.0724 159.659 10.9011 160.613 10.9011C161.567 10.9011 162.448 11.0724 163.256 11.415C164.063 11.7331 164.761 12.2469 165.348 12.9566C165.935 13.6662 166.388 14.596 166.706 15.7461C167.049 16.8717 167.22 18.2419 167.22 19.8569V21.7288ZM153.236 4.66142C153.236 4.17203 153.492 3.92734 154.006 3.92734H157.64V0.770785C157.64 0.256928 157.897 0 158.411 0H162.742C163.256 0 163.513 0.256928 163.513 0.770785V3.92734H167.146C167.66 3.92734 167.917 4.17203 167.917 4.66142V8.62547C167.917 8.87016 167.856 9.11486 167.734 9.35955C167.611 9.60424 167.416 9.72659 167.146 9.72659H154.006C153.737 9.72659 153.541 9.60424 153.419 9.35955C153.297 9.11486 153.236 8.87016 153.236 8.62547V4.66142ZM162.155 19.8569C162.155 18.7558 162.02 17.8994 161.751 17.2876C161.506 16.6514 161.127 16.3333 160.613 16.3333C160.075 16.3333 159.671 16.6514 159.402 17.2876C159.133 17.8994 158.998 18.7558 158.998 19.8569V21.7288C158.998 22.83 159.12 23.6986 159.365 24.3348C159.634 24.9466 160.026 25.2524 160.54 25.2524C161.078 25.2524 161.482 24.9466 161.751 24.3348C162.02 23.6986 162.155 22.83 162.155 21.7288V19.8569Z" fill="#10254A"/>
<path d="M186.152 8.99251C186.152 8.50312 186.409 8.25843 186.923 8.25843H196.319V6.12959H186.85C186.336 6.12959 186.079 5.88489 186.079 5.39551V2.38577C186.079 1.89638 186.336 1.65169 186.85 1.65169H202.339C202.853 1.65169 203.11 1.89638 203.11 2.38577V10.8277C203.11 11.3171 202.853 11.5618 202.339 11.5618H192.906V13.8007H202.596C203.11 13.8007 203.366 14.0454 203.366 14.5348V17.618C203.366 18.1074 203.11 18.3521 202.596 18.3521H186.923C186.409 18.3521 186.152 18.1074 186.152 17.618V8.99251ZM188.281 25.7663C187.792 25.7663 187.547 25.5094 187.547 24.9955V21.582C187.547 21.0926 187.792 20.8479 188.281 20.8479H213.864C214.353 20.8479 214.598 21.0926 214.598 21.582V30.5011C214.598 30.9905 214.353 31.2352 213.864 31.2352H208.211C207.722 31.2352 207.477 30.9905 207.477 30.5011V25.7663H188.281ZM208.578 18.0217C208.065 18.0217 207.808 17.777 207.808 17.2876V16.6637H205.202C204.712 16.6637 204.468 16.419 204.468 15.9296V12.3693C204.468 11.8554 204.712 11.5985 205.202 11.5985H207.808V8.58876H205.202C204.712 8.58876 204.468 8.34407 204.468 7.85468V4.29438C204.468 3.78052 204.712 3.5236 205.202 3.5236H207.808V2.05543C207.808 1.54157 208.065 1.28464 208.578 1.28464H213.827C214.341 1.28464 214.598 1.54157 214.598 2.05543V17.2876C214.598 17.777 214.341 18.0217 213.827 18.0217H208.578Z" fill="#10254A"/>
<path d="M234.465 16.7371C234.318 17.1286 234.013 17.3243 233.548 17.3243H227.602C227.308 17.3243 227.1 17.2509 226.978 17.1041C226.88 16.9328 226.892 16.7126 227.014 16.4434L233.034 2.01873C233.181 1.62722 233.462 1.43146 233.878 1.43146H240.118C240.387 1.43146 240.57 1.5171 240.668 1.68839C240.791 1.83521 240.791 2.0432 240.668 2.31236L234.465 16.7371ZM239.31 17.1041C238.845 17.1041 238.564 16.9084 238.466 16.5169L237.402 13.6172C237.304 13.2991 237.316 12.981 237.438 12.6629L240.301 5.94607C240.424 5.62796 240.583 5.46891 240.778 5.46891C240.999 5.46891 241.17 5.62796 241.292 5.94607L245.623 16.2599C245.868 16.8227 245.684 17.1041 245.073 17.1041H239.31ZM238.649 31.6022C235.297 31.6022 232.752 31.1006 231.015 30.0974C229.302 29.0941 228.446 27.4791 228.446 25.2524C228.446 22.9768 229.302 21.3496 231.015 20.3708C232.752 19.392 235.297 18.9026 238.649 18.9026H245.623C248.976 18.9026 251.484 19.392 253.148 20.3708C254.812 21.3496 255.643 22.9768 255.643 25.2524C255.643 27.4791 254.812 29.0941 253.148 30.0974C251.484 31.1006 248.976 31.6022 245.623 31.6022H238.649ZM245.623 27.0876C246.651 27.0876 247.348 26.9408 247.715 26.6472C248.107 26.3536 248.303 25.8886 248.303 25.2524C248.303 24.6162 248.107 24.1513 247.715 23.8577C247.348 23.564 246.651 23.4172 245.623 23.4172H238.649C237.622 23.4172 236.888 23.5518 236.447 23.821C236.007 24.0901 235.787 24.5673 235.787 25.2524C235.787 25.962 236.007 26.4514 236.447 26.7206C236.888 26.9653 237.622 27.0876 238.649 27.0876H245.623ZM249.44 17.5446C248.927 17.5446 248.67 17.2999 248.67 16.8105V11.1948H245.109C244.62 11.1948 244.375 10.9501 244.375 10.4607V6.16629C244.375 5.65243 244.62 5.39551 245.109 5.39551H248.67V2.05543C248.67 1.54157 248.927 1.28464 249.44 1.28464H254.689C255.203 1.28464 255.46 1.54157 255.46 2.05543V16.8105C255.46 17.2999 255.203 17.5446 254.689 17.5446H249.44Z" fill="#10254A"/>
<path d="M271.052 31.6022C267.7 31.6022 265.155 31.1129 263.418 30.1341C261.705 29.1308 260.849 27.5036 260.849 25.2524C260.849 22.9768 261.705 21.3496 263.418 20.3708C265.155 19.392 267.7 18.9026 271.052 18.9026H277.659C281.011 18.9026 283.519 19.392 285.183 20.3708C286.847 21.3496 287.679 22.9768 287.679 25.2524C287.679 27.5036 286.847 29.1308 285.183 30.1341C283.519 31.1129 281.011 31.6022 277.659 31.6022H271.052ZM259.637 2.38577C259.637 1.89638 259.894 1.65169 260.408 1.65169H277.072C277.586 1.65169 277.843 1.89638 277.843 2.38577V5.94607C277.843 6.43545 277.586 6.68015 277.072 6.68015H272.557L266.685 16.5536C266.587 16.7248 266.464 16.8717 266.318 16.994C266.171 17.0919 265.987 17.1408 265.767 17.1408H260.004C259.711 17.1408 259.503 17.0674 259.38 16.9206C259.283 16.7493 259.295 16.5291 259.417 16.2599L264.959 6.68015H260.408C259.894 6.68015 259.637 6.43545 259.637 5.94607V2.38577ZM281.146 17.5813C280.632 17.5813 280.375 17.3366 280.375 16.8472V2.05543C280.375 1.54157 280.632 1.28464 281.146 1.28464H286.395C286.909 1.28464 287.165 1.54157 287.165 2.05543V6.42322H288.891C289.38 6.42322 289.625 6.66791 289.625 7.1573V11.4884C289.625 11.9778 289.38 12.2225 288.891 12.2225H287.165V16.8472C287.165 17.3366 286.909 17.5813 286.395 17.5813H281.146ZM271.897 16.9206C271.701 16.9206 271.542 16.8717 271.419 16.7738C271.297 16.6759 271.175 16.5291 271.052 16.3333L269.841 14.3146C269.694 13.9965 269.706 13.6784 269.878 13.3603L272.741 8.58876C272.888 8.3196 273.047 8.18502 273.218 8.18502C273.414 8.18502 273.585 8.3196 273.732 8.58876L278.21 16.0764C278.454 16.6392 278.271 16.9206 277.659 16.9206H271.897ZM277.659 27.0876C278.687 27.0876 279.384 26.9408 279.751 26.6472C280.143 26.3536 280.338 25.8886 280.338 25.2524C280.338 24.6162 280.143 24.1513 279.751 23.8577C279.384 23.564 278.687 23.4172 277.659 23.4172H271.052C270.025 23.4172 269.291 23.5518 268.85 23.821C268.41 24.0901 268.189 24.5673 268.189 25.2524C268.189 25.962 268.41 26.4514 268.85 26.7206C269.291 26.9653 270.025 27.0876 271.052 27.0876H277.659Z" fill="#10254A"/>
<path d="M307.033 30.5011C306.91 30.8926 306.604 31.0884 306.115 31.0884H300.683C300.145 31.0884 299.949 30.7948 300.096 30.2075L306.886 2.42247C306.984 2.03096 307.277 1.83521 307.767 1.83521H313.456C313.97 1.83521 314.153 2.12884 314.006 2.7161L307.033 30.5011ZM313.676 30.9783C313.211 30.9783 312.93 30.7825 312.832 30.391L310.299 22.7933C310.275 22.622 310.263 22.4752 310.263 22.3528C310.287 22.206 310.324 22.0347 310.373 21.8389L312.759 12.3326C312.832 12.0145 312.991 11.8432 313.236 11.8187C313.48 11.7943 313.652 11.9533 313.75 12.2959L319.659 30.1341C319.855 30.6969 319.671 30.9783 319.108 30.9783H313.676ZM322.705 31.2352C322.191 31.2352 321.935 30.9905 321.935 30.5011V2.05543C321.935 1.54157 322.191 1.28464 322.705 1.28464H327.954C328.468 1.28464 328.725 1.54157 328.725 2.05543V30.5011C328.725 30.9905 328.468 31.2352 327.954 31.2352H322.705Z" fill="#10254A"/>
<path d="M341.748 19.9303C341.626 20.0772 341.491 20.2117 341.344 20.3341C341.222 20.4564 341.051 20.5176 340.83 20.5176H333.893C333.6 20.5176 333.379 20.432 333.233 20.2607C333.086 20.0894 333.11 19.8814 333.306 19.6367L345.418 2.42247C345.541 2.25119 345.675 2.1166 345.822 2.01873C345.969 1.89638 346.14 1.83521 346.336 1.83521H353.64C353.909 1.83521 354.08 1.94532 354.154 2.16554C354.252 2.3613 354.215 2.56929 354.044 2.78951L341.748 19.9303ZM347.841 14.3513C347.596 14.0087 347.621 13.6539 347.914 13.2869L351.071 8.8824C351.389 8.46642 351.707 8.47865 352.025 8.9191L361.164 19.6367C361.36 19.8569 361.385 20.0649 361.238 20.2607C361.091 20.432 360.871 20.5176 360.577 20.5176H353.457C353.236 20.5176 353.053 20.4564 352.906 20.3341C352.784 20.2117 352.661 20.0772 352.539 19.9303L347.841 14.3513ZM333.453 30.5011C332.939 30.5011 332.682 30.232 332.682 29.6936V25.5094C332.682 25.02 332.939 24.7753 333.453 24.7753H360.871C361.385 24.7753 361.642 25.02 361.642 25.5094V29.6936C361.642 30.232 361.385 30.5011 360.871 30.5011H333.453Z" fill="#10254A"/>
<path d="M366.149 20.7378C366.149 20.224 366.394 19.967 366.883 19.967H392.943C393.457 19.967 393.714 20.2117 393.714 20.7011V30.3176C393.714 30.807 393.457 31.0517 392.943 31.0517H366.92C366.406 31.0517 366.149 30.807 366.149 30.3176V20.7378ZM365.856 17.8015C365.293 17.8015 365.036 17.5568 365.085 17.0674L365.525 8.0015C365.574 7.53658 365.831 7.30412 366.296 7.30412H376.426C376.94 7.30412 377.197 7.54881 377.197 8.0382V10.1303C377.197 10.6197 376.94 10.8644 376.426 10.8644H371.435L371.325 13.8007H378.445C378.91 13.8007 379.143 14.0454 379.143 14.5348V17.0307C379.143 17.5446 378.91 17.8015 378.445 17.8015H365.856ZM386.373 17.1408C386.373 17.6547 386.129 17.9116 385.639 17.9116H381.602C381.112 17.9116 380.868 17.6547 380.868 17.1408V12.0757H379.069C378.604 12.0757 378.372 11.831 378.372 11.3416V8.14831C378.372 7.63446 378.604 7.37753 379.069 7.37753H380.868V2.16554C380.868 1.65169 381.112 1.39476 381.602 1.39476H385.639C386.129 1.39476 386.373 1.65169 386.373 2.16554V17.1408ZM388.172 2.05543C388.172 1.54157 388.416 1.28464 388.906 1.28464H392.98C393.469 1.28464 393.714 1.54157 393.714 2.05543V17.361C393.714 17.8504 393.469 18.0951 392.98 18.0951H388.906C388.416 18.0951 388.172 17.8504 388.172 17.361V2.05543ZM364.718 2.38577C364.718 1.89638 364.975 1.65169 365.489 1.65169H377.858C378.372 1.65169 378.629 1.89638 378.629 2.38577V4.84494C378.629 5.33433 378.372 5.57903 377.858 5.57903H365.489C364.975 5.57903 364.718 5.33433 364.718 4.84494V2.38577ZM373.086 24.0779V26.9775H386.74V24.0779H373.086Z" fill="#10254A"/>
</svg>
