<svg width="63" height="88" viewBox="0 0 63 88" fill="none" xmlns="http://www.w3.org/2000/svg">
<path d="M31.497 58.5529L48.1097 62.9621V87.8515C47.8254 87.9074 47.5318 87.934 47.2341 87.934H38.7942C37.0323 87.934 35.3821 86.9646 34.5702 85.3625C32.4191 81.1171 31.6125 74.9527 31.3574 69.6073C31.0731 63.556 31.497 58.5529 31.497 58.5529Z" fill="#9B50D4"/>
<path d="M27.0317 5.67773C32.1196 -1.16895 42.205 -1.7321 48.1069 3.9707V72.2373C47.5711 72.034 47.0371 71.7971 46.5083 71.5215L44.8823 70.665C40.7691 68.5205 35.868 68.5206 31.7661 70.665L30.1274 71.5215C19.8019 76.9079 7.71778 68.1957 9.6958 56.7715L10.0112 54.9648C10.7876 50.4219 9.2829 45.7931 5.9585 42.5762L4.63623 41.2998C-3.72378 33.2013 0.886106 19.1009 12.437 17.4385L14.269 17.1738C17.3745 16.7277 20.19 15.269 22.314 13.1006C23.0173 12.3895 23.6485 11.5943 24.1694 10.7383C24.4361 10.341 24.6663 9.94374 24.8726 9.52148L25.686 7.87012C25.6983 7.8577 25.6986 7.83457 25.7095 7.82324C26.0983 7.05213 26.546 6.32762 27.0317 5.67773Z" fill="#C486E9"/>
<path d="M54.3447 63.4708C56.2687 62.0964 57.1656 59.5795 56.3856 57.2144C55.4263 54.3074 52.0912 52.2486 49.3966 53.6908C39.5283 58.9723 27.3069 48.894 27.2564 48.8527C23.9639 46.1188 20.1412 46.1507 18.4166 48.6823C15.7126 52.6521 19.829 57.1998 23.0338 59.3785C23.4497 59.6608 37.3745 69.3555 52.8699 64.2192C53.4106 64.0407 53.9036 63.7864 54.3447 63.4708Z" fill="#9B50D4"/>
<path d="M56.2265 64.5393C59.6064 61.7458 60.4559 57.1836 58.1239 54.3493C55.7919 51.515 51.1615 51.4819 47.7815 54.2753C44.4016 57.0688 43.5521 61.631 45.8841 64.4653C48.2161 67.2996 52.8465 67.3327 56.2265 64.5393Z" fill="#9B50D4"/>
<path d="M22.8014 41.9186C25.2917 41.3195 26.8265 38.8104 26.2293 36.3143C25.6322 33.8183 23.1293 32.2805 20.639 32.8795C18.1487 33.4786 16.614 35.9877 17.2111 38.4837C17.8082 40.9798 20.3111 42.5176 22.8014 41.9186Z" fill="#AC69E9"/>
<path d="M33.1605 36.737C35.655 36.1558 37.2076 33.6578 36.6283 31.1575C36.049 28.6572 33.5572 27.1015 31.0626 27.6827C28.5681 28.2638 27.0155 30.7619 27.5948 33.2621C28.1741 35.7624 30.666 37.3181 33.1605 36.737Z" fill="white"/>
<path d="M32.836 36.8893C34.5388 36.4905 35.5967 34.7838 35.1989 33.0771C34.8011 31.3704 33.0981 30.3101 31.3953 30.7088C29.6924 31.1076 28.6345 32.8143 29.0323 34.521C29.4302 36.2277 31.1331 37.288 32.836 36.8893Z" fill="black"/>
<path d="M48.1106 29.1103V35.304C47.5711 35.9072 46.8789 36.368 46.0936 36.6237C45.6392 36.7755 45.1569 36.8554 44.652 36.8554C44.1471 36.8554 43.6607 36.7755 43.2077 36.6237C41.3541 36.0177 40.0161 34.2692 40.0161 32.2078C40.0161 29.6389 42.0902 27.5575 44.6533 27.5575C46.0272 27.5575 47.2615 28.1581 48.1119 29.1103H48.1106Z" fill="white"/>
<path d="M45.3731 36.8884C47.0759 36.4897 48.1338 34.7829 47.736 33.0762C47.3382 31.3696 45.6352 30.3092 43.9324 30.708C42.2296 31.1067 41.1716 32.8135 41.5695 34.5201C41.9673 36.2268 43.6702 37.2871 45.3731 36.8884Z" fill="black"/>
<path d="M48.1109 40.7093V42.567C44.9579 43.6404 41.6707 44.1784 38.3835 44.1784C33.7077 44.1784 29.0294 43.093 24.743 40.9197C23.7252 40.4057 22.7313 39.8317 21.764 39.1952C21.3601 38.9275 21.2472 38.3828 21.5116 37.9793C21.7786 37.5745 22.3221 37.4613 22.7247 37.729C23.7358 38.3948 24.7802 38.9901 25.8485 39.5134C32.8348 42.9452 40.8801 43.3434 48.1109 40.7093Z" fill="black"/>
</svg>
