<svg width="516" height="93" viewBox="0 0 516 93" fill="none" xmlns="http://www.w3.org/2000/svg">
<path d="M47.3671 27.3098C51.1444 27.3098 54.2418 27.1964 56.6592 26.9698C59.1523 26.7432 61.1164 26.4032 62.5518 25.9499C64.0627 25.4211 65.0826 24.779 65.6114 24.0235C66.2158 23.2681 66.518 22.3237 66.518 21.1906C66.518 20.0574 66.178 19.1131 65.4981 18.3576C64.8937 17.5266 63.6472 16.8845 61.7586 16.4312C59.8699 15.9024 57.2258 15.5246 53.8263 15.298C50.4267 14.9958 46.0073 14.8447 40.568 14.8447H2.83296C1.2465 14.8447 0.453274 14.0893 0.453274 12.5784V3.51288C0.453274 2.00196 1.2465 1.24651 2.83296 1.24651H40.0014C49.2935 1.24651 56.9992 1.69978 63.1184 2.60633C69.2376 3.51288 74.1103 4.83493 77.7365 6.57247C81.3627 8.23448 83.8934 10.3498 85.3288 12.9183C86.8397 15.4113 87.5952 18.2443 87.5952 21.4172C87.5952 24.2879 87.0286 26.8565 85.8954 29.1229C84.7622 31.3892 82.9491 33.3534 80.4561 35.0154C77.9631 36.6774 74.6769 37.9995 70.5974 38.9816C66.5935 39.8881 61.6453 40.4925 55.7527 40.7947V45.7807H87.0286C88.6151 45.7807 89.4083 46.5361 89.4083 48.047V59.7188C89.4083 61.3053 88.6151 62.0985 87.0286 62.0985H2.37969C0.79323 62.0985 0 61.3053 0 59.7188V48.047C0 46.5361 0.79323 45.7807 2.37969 45.7807H33.7689V40.7947C28.0274 40.4925 23.1925 39.8503 19.2641 38.8682C15.3358 37.8106 12.1251 36.4886 9.63207 34.9021C7.21461 33.2401 5.47706 31.3137 4.41942 29.1229C3.36178 26.8565 2.83296 24.2879 2.83296 21.4172V20.5107C2.83296 18.9997 3.58842 18.2443 5.09933 18.2443H21.5305C23.117 18.2443 23.9102 18.9997 23.9102 20.5107V21.1906C23.9102 22.3237 24.1746 23.2681 24.7034 24.0235C25.3078 24.779 26.2899 25.4211 27.6497 25.9499C29.0851 26.4032 31.0115 26.7432 33.429 26.9698C35.922 27.1964 39.0571 27.3098 42.8344 27.3098H47.3671ZM86.0087 76.3767C87.5196 76.3767 88.2751 77.1321 88.2751 78.643V89.6349C88.2751 91.1458 87.5196 91.9013 86.0087 91.9013H3.85283C2.34192 91.9013 1.58646 91.1458 1.58646 89.6349V70.0308C1.58646 68.5199 2.34192 67.7645 3.85283 67.7645H21.1906C22.777 67.7645 23.5702 68.5199 23.5702 70.0308V76.3767H86.0087Z" fill="url(#paint0_linear_14824_859)"/>
<path d="M124.176 24.5901H185.141C186.728 24.5901 187.521 25.3456 187.521 26.8565V36.0353C187.521 37.5462 186.728 38.3017 185.141 38.3017H155.792V44.6475H187.068C188.654 44.6475 189.447 45.4029 189.447 46.9139V57.4525C189.447 59.0389 188.654 59.8322 187.068 59.8322H102.419C100.832 59.8322 100.039 59.0389 100.039 57.4525V46.9139C100.039 45.4029 100.832 44.6475 102.419 44.6475H133.808V38.3017H104.572C103.816 38.3017 103.212 38.1128 102.759 37.7351C102.305 37.3573 102.116 36.753 102.192 35.922L103.892 20.3973C104.043 18.962 104.836 18.2443 106.271 18.2443H122.363C124.025 18.2443 124.818 19.0375 124.742 20.624L124.176 24.5901ZM104.232 80.2295C102.721 80.2295 101.965 79.5118 101.965 78.0764V68.2177C101.965 66.7068 102.721 65.9514 104.232 65.9514H185.594C187.105 65.9514 187.861 66.7068 187.861 68.2177V90.2015C187.861 91.7124 187.105 92.4679 185.594 92.4679H168.143C166.632 92.4679 165.877 91.7124 165.877 90.2015V80.2295H104.232ZM101.059 3.51288C101.059 2.00196 101.852 1.24651 103.439 1.24651H184.688C186.274 1.24651 187.068 2.00196 187.068 3.51288V12.5784C187.068 14.0893 186.274 14.8447 184.688 14.8447H103.439C101.852 14.8447 101.059 14.0893 101.059 12.5784V3.51288Z" fill="url(#paint1_linear_14824_859)"/>
<path d="M230.047 92.4679C228.536 92.4679 227.781 91.7124 227.781 90.2015V71.504C227.781 69.9175 228.536 69.1243 230.047 69.1243H291.692V64.7049H230.047C228.536 64.7049 227.781 63.9494 227.781 62.4385V56.7726C227.781 55.2617 228.536 54.5062 230.047 54.5062H311.75C313.261 54.5062 314.016 55.2617 314.016 56.7726V75.2435C314.016 76.7544 313.261 77.5098 311.75 77.5098H250.218V82.0426H312.203C312.958 82.0426 313.525 82.2692 313.903 82.7225C314.281 83.1758 314.469 83.7046 314.469 84.309V90.2015C314.469 91.7124 313.714 92.4679 312.203 92.4679H230.047ZM228.347 25.0434C228.347 23.4569 229.141 22.6637 230.727 22.6637H239.339V17.3377C239.339 16.6578 239.566 16.129 240.019 15.7513C240.472 15.298 241.039 15.0714 241.719 15.0714H258.263C259.699 15.0714 260.417 15.8268 260.417 17.3377V22.6637H280.587L282.06 17.3377C282.438 15.8268 283.231 15.0714 284.44 15.0714H300.758C301.513 15.0714 302.118 15.2602 302.571 15.638C303.024 16.0157 303.138 16.5823 302.911 17.3377L301.324 22.6637H311.07C312.656 22.6637 313.45 23.4569 313.45 25.0434V31.5025C313.45 33.0135 312.656 33.7689 311.07 33.7689H230.727C229.141 33.7689 228.347 33.0135 228.347 31.5025V25.0434ZM228.574 49.2935C226.988 49.2935 226.194 48.5003 226.194 46.9139V40.1147C226.194 38.6038 226.988 37.8484 228.574 37.8484H313.223C314.809 37.8484 315.603 38.6038 315.603 40.1147V46.9139C315.603 48.5003 314.809 49.2935 313.223 49.2935H228.574ZM228.347 2.94628C228.347 1.43537 229.141 0.679916 230.727 0.679916H311.07C312.656 0.679916 313.45 1.43537 313.45 2.94628V9.51876C313.45 11.0297 312.656 11.7851 311.07 11.7851H230.727C229.141 11.7851 228.347 11.0297 228.347 9.51876V2.94628Z" fill="url(#paint2_linear_14824_859)"/>
<path d="M328.613 57.6791C327.026 57.6791 326.233 56.9237 326.233 55.4127V25.61C326.233 24.0991 327.026 23.3436 328.613 23.3436H348.444V16.2045H328.386C326.8 16.2045 326.007 15.4491 326.007 13.9382V3.39956C326.007 1.88865 326.8 1.13319 328.386 1.13319H364.875C366.461 1.13319 367.255 1.88865 367.255 3.39956V32.6357C367.255 34.1466 366.461 34.9021 364.875 34.9021H344.818V42.4944H350.597C355.961 42.4944 360.342 42.3433 363.742 42.0412C367.217 41.739 370.39 41.1346 373.26 40.2281V2.71965C373.26 1.13319 374.016 0.339958 375.527 0.339958H388.558C390.069 0.339958 390.825 1.13319 390.825 2.71965V21.0772H396.944V2.37969C396.944 0.79323 397.699 0 399.21 0H412.355C413.866 0 414.622 0.79323 414.622 2.37969V61.3053C414.622 62.8162 413.866 63.5717 412.355 63.5717H399.21C397.699 63.5717 396.944 62.8162 396.944 61.3053V38.075H390.825V55.6394C390.825 57.1503 390.069 57.9057 388.558 57.9057H375.527C374.016 57.9057 373.26 57.1503 373.26 55.6394V54.3929C370.692 55.4505 367.406 56.2815 363.402 56.8859C359.398 57.4147 354.374 57.6791 348.33 57.6791H328.613ZM326.913 77.7365C326.913 76.2256 327.706 75.4701 329.293 75.4701H349.464L361.249 64.4782C362.08 63.7228 363.175 63.345 364.535 63.345H385.272C386.179 63.345 386.745 63.685 386.972 64.3649C387.199 65.0448 386.972 65.687 386.292 66.2913L360.002 90.7681C359.171 91.5236 358.076 91.9013 356.716 91.9013H329.293C327.706 91.9013 326.913 91.1458 326.913 89.6349V77.7365ZM376.093 83.8557C374.96 82.8736 374.922 81.7782 375.98 80.5694L386.972 70.2575C388.03 69.1998 389.125 69.1998 390.258 70.2575L396.151 75.4701H413.942C415.528 75.4701 416.321 76.2256 416.321 77.7365V89.6349C416.321 91.1458 415.528 91.9013 413.942 91.9013H386.972C386.292 91.9013 385.688 91.788 385.159 91.5613C384.706 91.4103 384.215 91.1458 383.686 90.7681L376.093 83.8557Z" fill="url(#paint3_linear_14824_859)"/>
<path d="M428.425 27.4231C428.425 25.9122 429.219 25.1567 430.805 25.1567H439.417V18.6976C439.417 18.0176 439.644 17.4888 440.097 17.1111C440.55 16.6578 441.117 16.4312 441.797 16.4312H458.341C459.777 16.4312 460.494 17.1866 460.494 18.6976V25.1567H480.552L482.138 18.6976C482.516 17.1866 483.309 16.4312 484.518 16.4312H500.836C501.591 16.4312 502.196 16.62 502.649 16.9978C503.102 17.3755 503.216 17.9421 502.989 18.6976L501.289 25.1567H511.148C512.734 25.1567 513.527 25.9122 513.527 27.4231V34.9021C513.527 36.413 512.734 37.1685 511.148 37.1685H482.025V42.7211H513.301C514.887 42.7211 515.681 43.4765 515.681 44.9874V53.8263C515.681 55.4127 514.887 56.206 513.301 56.206H428.652C427.065 56.206 426.272 55.4127 426.272 53.8263V44.9874C426.272 43.4765 427.065 42.7211 428.652 42.7211H460.041V37.1685H430.805C429.219 37.1685 428.425 36.413 428.425 34.9021V27.4231ZM427.859 64.1383C427.859 62.5518 428.614 61.7586 430.125 61.7586H511.714C513.301 61.7586 514.094 62.514 514.094 64.0249V89.6349C514.094 91.1458 513.301 91.9013 511.714 91.9013H430.238C428.652 91.9013 427.859 91.1458 427.859 89.6349V64.1383ZM428.425 3.51288C428.425 2.00196 429.219 1.24651 430.805 1.24651H511.148C512.734 1.24651 513.527 2.00196 513.527 3.51288V10.8786C513.527 12.3895 512.734 13.1449 511.148 13.1449H430.805C429.219 13.1449 428.425 12.3895 428.425 10.8786V3.51288ZM448.823 73.4304V80.2295H493.243V73.4304H448.823Z" fill="url(#paint4_linear_14824_859)"/>
<defs>
<linearGradient id="paint0_linear_14824_859" x1="0" y1="46.2339" x2="515.681" y2="46.2339" gradientUnits="userSpaceOnUse">
<stop stop-color="#06317D"/>
<stop offset="1" stop-color="#0B59E3"/>
</linearGradient>
<linearGradient id="paint1_linear_14824_859" x1="0" y1="46.2339" x2="515.681" y2="46.2339" gradientUnits="userSpaceOnUse">
<stop stop-color="#06317D"/>
<stop offset="1" stop-color="#0B59E3"/>
</linearGradient>
<linearGradient id="paint2_linear_14824_859" x1="0" y1="46.2339" x2="515.681" y2="46.2339" gradientUnits="userSpaceOnUse">
<stop stop-color="#06317D"/>
<stop offset="1" stop-color="#0B59E3"/>
</linearGradient>
<linearGradient id="paint3_linear_14824_859" x1="0" y1="46.2339" x2="515.681" y2="46.2339" gradientUnits="userSpaceOnUse">
<stop stop-color="#06317D"/>
<stop offset="1" stop-color="#0B59E3"/>
</linearGradient>
<linearGradient id="paint4_linear_14824_859" x1="0" y1="46.2339" x2="515.681" y2="46.2339" gradientUnits="userSpaceOnUse">
<stop stop-color="#06317D"/>
<stop offset="1" stop-color="#0B59E3"/>
</linearGradient>
</defs>
</svg>
