<svg width="40" height="40" viewBox="0 0 40 40" fill="none" xmlns="http://www.w3.org/2000/svg">
<g clip-path="url(#clip0_14741_88678)">
<rect width="40" height="40" rx="4" fill="white"/>
<path d="M39.4176 0H0.582386C0.262074 0 0 0.262602 0 0.583559V39.4164C0 39.7374 0.262074 40 0.582386 40H39.4176C39.7379 40 40 39.7374 40 39.4164V0.583559C40 0.262602 39.7379 0 39.4176 0ZM2.90669 3.64608C2.90669 3.32512 3.16876 3.06252 3.48907 3.06252H12.4904C12.8107 3.06252 13.0728 3.32512 13.0728 3.64608V17.9304C13.0728 18.2514 12.8107 18.514 12.4904 18.514H3.48907C3.16876 18.514 2.90669 18.2514 2.90669 17.9304V3.64608ZM2.90669 21.437C2.90669 21.1161 3.16876 20.8535 3.48907 20.8535H24.3548C24.6751 20.8535 24.9372 21.1161 24.9372 21.437V35.1344C24.9372 35.4553 24.6751 35.7179 24.3548 35.7179H3.48907C3.16876 35.7179 2.90669 35.4553 2.90669 35.1344V21.437ZM37.0927 35.2653C37.0927 35.5863 36.8307 35.8489 36.5103 35.8489H3.48907C3.16876 35.8489 2.90669 35.5863 2.90669 35.2653V40.1007C2.90669 39.7797 3.16876 39.5171 3.48907 39.5171H36.5103C36.8307 39.5171 37.0927 39.7797 37.0927 40.1007V35.2653ZM37.0927 35.1344C37.0927 35.4553 36.8307 35.7179 36.5103 35.7179H27.8543C27.534 35.7179 27.272 35.4553 27.272 35.1344V21.437C27.272 21.1161 27.534 20.8535 27.8543 20.8535H36.5103C36.8307 20.8535 37.0927 21.1161 37.0927 21.437V35.1344ZM37.0927 17.9304C37.0927 18.2514 36.8307 18.514 36.5103 18.514H15.99C15.6697 18.514 15.4076 18.2514 15.4076 17.9304V3.64608C15.4076 3.32512 15.6697 3.06252 15.99 3.06252H36.5103C36.8307 3.06252 37.0927 3.32512 37.0927 3.64608V17.9304Z" fill="#54A4EF"/>
<path d="M34.7632 5.88916H31.4826C31.161 5.88916 30.9002 6.15043 30.9002 6.47272V16.1796C30.9002 16.5019 31.161 16.7632 31.4826 16.7632H34.7632C35.0848 16.7632 35.3456 16.5019 35.3456 16.1796V6.47272C35.3456 6.15043 35.0848 5.88916 34.7632 5.88916Z" fill="#294F93"/>
<path d="M28.9125 5.88916H25.632C25.3103 5.88916 25.0496 6.15043 25.0496 6.47272V16.1796C25.0496 16.5019 25.3103 16.7632 25.632 16.7632H28.9125C29.2342 16.7632 29.4949 16.5019 29.4949 16.1796V6.47272C29.4949 6.15043 29.2342 5.88916 28.9125 5.88916Z" fill="#294F93"/>
<path d="M22.9047 5.88916H19.6241C19.3024 5.88916 19.0417 6.15043 19.0417 6.47272V16.1796C19.0417 16.5019 19.3024 16.7632 19.6241 16.7632H22.9047C23.2263 16.7632 23.487 16.5019 23.487 16.1796V6.47272C23.487 6.15043 23.2263 5.88916 22.9047 5.88916Z" fill="#54A4EF"/>
<path d="M20.3753 23.1089H17.0948C16.7731 23.1089 16.5124 23.3702 16.5124 23.6924V33.3994C16.5124 33.7217 16.7731 33.9829 17.0948 33.9829H20.3753C20.697 33.9829 20.9577 33.7217 20.9577 33.3994V23.6924C20.9577 23.3702 20.697 23.1089 20.3753 23.1089Z" fill="#54A4EF"/>
<path d="M35.1283 23.5747L32.0487 22.4414C31.7482 22.3306 31.4115 22.487 31.3015 22.7881L27.9615 31.8998C27.8508 32.2009 28.0069 32.5382 28.3074 32.6485L31.3871 33.7817C31.6876 33.8926 32.0242 33.7362 32.1343 33.4351L35.4743 24.3234C35.5849 24.0223 35.4288 23.685 35.1283 23.5747Z" fill="#54A4EF"/>
<path d="M14.5241 23.1089H11.2435C10.9219 23.1089 10.6611 23.3702 10.6611 23.6924V33.3994C10.6611 33.7217 10.9219 33.9829 11.2435 33.9829H14.5241C14.8458 33.9829 15.1065 33.7217 15.1065 33.3994V23.6924C15.1065 23.3702 14.8458 23.1089 14.5241 23.1089Z" fill="#294F93"/>
<path d="M8.5168 23.1089H5.23622C4.91458 23.1089 4.65384 23.3702 4.65384 23.6924V33.3994C4.65384 33.7217 4.91458 33.9829 5.23622 33.9829H8.5168C8.83845 33.9829 9.09919 33.7217 9.09919 33.3994V23.6924C9.09919 23.3702 8.83845 23.1089 8.5168 23.1089Z" fill="#294F93"/>
</g>
<defs>
<clipPath id="clip0_14741_88678">
<rect width="40" height="40" rx="4" fill="white"/>
</clipPath>
</defs>
</svg>
