<svg width="40" height="40" viewBox="0 0 40 40" fill="none" xmlns="http://www.w3.org/2000/svg">
<g clip-path="url(#clip0_14840_642)">
<rect width="40" height="40" rx="4" fill="white"/>
<path d="M39.4176 0H0.582386C0.262074 0 0 0.262602 0 0.583559V39.4164C0 39.7374 0.262074 40 0.582386 40H39.4176C39.7379 40 40 39.7374 40 39.4164V0.583559C40 0.262602 39.7379 0 39.4176 0ZM2.90669 3.64608C2.90669 3.32512 3.16876 3.06252 3.48907 3.06252H12.4904C12.8107 3.06252 13.0728 3.32512 13.0728 3.64608V17.9304C13.0728 18.2514 12.8107 18.514 12.4904 18.514H3.48907C3.16876 18.514 2.90669 18.2514 2.90669 17.9304V3.64608ZM2.90669 21.437C2.90669 21.1161 3.16876 20.8535 3.48907 20.8535H24.3548C24.6751 20.8535 24.9372 21.1161 24.9372 21.437V35.1344C24.9372 35.4553 24.6751 35.7179 24.3548 35.7179H3.48907C3.16876 35.7179 2.90669 35.4553 2.90669 35.1344V21.437ZM37.0927 35.2653C37.0927 35.5863 36.8307 35.8489 36.5103 35.8489H3.48907C3.16876 35.8489 2.90669 35.5863 2.90669 35.2653V40.1007C2.90669 39.7797 3.16876 39.5171 3.48907 39.5171H36.5103C36.8307 39.5171 37.0927 39.7797 37.0927 40.1007V35.2653ZM37.0927 35.1344C37.0927 35.4553 36.8307 35.7179 36.5103 35.7179H27.8543C27.534 35.7179 27.272 35.4553 27.272 35.1344V21.437C27.272 21.1161 27.534 20.8535 27.8543 20.8535H36.5103C36.8307 20.8535 37.0927 21.1161 37.0927 21.437V35.1344ZM37.0927 17.9304C37.0927 18.2514 36.8307 18.514 36.5103 18.514H15.99C15.6697 18.514 15.4076 18.2514 15.4076 17.9304V3.64608C15.4076 3.32512 15.6697 3.06252 15.99 3.06252H36.5103C36.8307 3.06252 37.0927 3.32512 37.0927 3.64608V17.9304Z" fill="#54A4EF"/>
<path d="M34.7634 5.88928H31.4828C31.1611 5.88928 30.9004 6.15055 30.9004 6.47284V16.1798C30.9004 16.5021 31.1611 16.7633 31.4828 16.7633H34.7634C35.085 16.7633 35.3457 16.5021 35.3457 16.1798V6.47284C35.3457 6.15055 35.085 5.88928 34.7634 5.88928Z" fill="#294F93"/>
<path d="M28.9128 5.88928H25.6322C25.3105 5.88928 25.0498 6.15055 25.0498 6.47284V16.1798C25.0498 16.5021 25.3105 16.7633 25.6322 16.7633H28.9128C29.2344 16.7633 29.4952 16.5021 29.4952 16.1798V6.47284C29.4952 6.15055 29.2344 5.88928 28.9128 5.88928Z" fill="#294F93"/>
<path d="M22.9045 5.88928H19.6239C19.3022 5.88928 19.0415 6.15055 19.0415 6.47284V16.1798C19.0415 16.5021 19.3022 16.7633 19.6239 16.7633H22.9045C23.2261 16.7633 23.4869 16.5021 23.4869 16.1798V6.47284C23.4869 6.15055 23.2261 5.88928 22.9045 5.88928Z" fill="#54A4EF"/>
<path d="M20.3752 23.109H17.0946C16.7729 23.109 16.5122 23.3703 16.5122 23.6926V33.3995C16.5122 33.7218 16.7729 33.9831 17.0946 33.9831H20.3752C20.6968 33.9831 20.9576 33.7218 20.9576 33.3995V23.6926C20.9576 23.3703 20.6968 23.109 20.3752 23.109Z" fill="#54A4EF"/>
<path d="M35.1282 23.5746L32.0486 22.4413C31.7481 22.3304 31.4114 22.4868 31.3014 22.788L27.9614 31.8996C27.8507 32.2008 28.0068 32.5381 28.3073 32.6484L31.387 33.7816C31.6875 33.8925 32.0241 33.7361 32.1342 33.435L35.4742 24.3233C35.5848 24.0222 35.4287 23.6849 35.1282 23.5746Z" fill="#54A4EF"/>
<path d="M14.5241 23.109H11.2435C10.9219 23.109 10.6611 23.3703 10.6611 23.6926V33.3995C10.6611 33.7218 10.9219 33.9831 11.2435 33.9831H14.5241C14.8457 33.9831 15.1065 33.7218 15.1065 33.3995V23.6926C15.1065 23.3703 14.8457 23.109 14.5241 23.109Z" fill="#294F93"/>
<path d="M8.51677 23.109H5.23619C4.91455 23.109 4.65381 23.3703 4.65381 23.6926V33.3995C4.65381 33.7218 4.91455 33.9831 5.23619 33.9831H8.51677C8.83842 33.9831 9.09916 33.7218 9.09916 33.3995V23.6926C9.09916 23.3703 8.83842 23.109 8.51677 23.109Z" fill="#294F93"/>
</g>
<defs>
<clipPath id="clip0_14840_642">
<rect width="40" height="40" rx="4" fill="white"/>
</clipPath>
</defs>
</svg>
