<svg width="63" height="26" viewBox="0 0 63 26" fill="none" xmlns="http://www.w3.org/2000/svg">
<path fill-rule="evenodd" clip-rule="evenodd" d="M39.2803 2.19824C45.394 2.50901 50.2563 7.5716 50.2563 13.772C50.256 20.1722 45.0746 25.3603 38.6841 25.3604C32.4934 25.36 27.4382 20.4911 27.1279 14.3682L27.1133 13.772C27.1133 7.37157 32.2935 2.18245 38.6841 2.18213L39.2803 2.19824ZM45.2261 15.5151C44.9252 15.0549 44.308 14.9276 43.8491 15.2295C40.8119 17.2268 36.8869 17.2267 33.8501 15.2295C33.3918 14.9279 32.7759 15.0547 32.4746 15.5137C32.1721 15.9741 32.3019 16.5907 32.7588 16.8921C34.6084 18.1083 36.7294 18.7173 38.8496 18.7173C40.9695 18.7173 43.0894 18.1087 44.939 16.8921C45.3974 16.5909 45.5266 15.9744 45.2261 15.5151Z" fill="#54A4EF"/>
<path d="M59.786 13.6429C59.786 11.8677 58.3469 10.4286 56.5717 10.4286C54.7965 10.4286 53.3574 11.8677 53.3574 13.6429V20.7143H50.786V13.6429C50.786 10.4475 53.3763 7.85715 56.5717 7.85715C59.7671 7.85715 62.3574 10.4475 62.3574 13.6429V20.7143H59.786V13.6429Z" fill="#54A4EF"/>
<path d="M9.76053 9.86H10.6955C11.6305 9.86 12.4465 10.234 13.0075 10.965L12.9905 10.948C13.4835 11.543 13.7385 12.359 13.7385 13.226V19.091C13.7385 19.856 13.0925 20.502 12.3275 20.502H11.9705C11.6135 20.502 11.2905 20.196 11.2905 19.839V13.226C11.2905 13.005 11.2225 12.308 10.6955 12.308H9.93053C9.74353 12.308 9.19953 12.495 8.84253 12.852V12.835C8.57053 13.175 8.51953 13.583 8.51953 13.872V19.04C8.51953 19.822 7.87353 20.451 7.10853 20.451H6.73453C6.37753 20.451 6.05453 20.128 6.05453 19.788V13.226C6.05453 13.005 6.00353 12.308 5.45953 12.308H4.69453C4.50753 12.308 3.96353 12.495 3.60653 12.852V12.835C3.33453 13.175 3.28353 13.583 3.28353 13.872V19.091C3.28353 19.856 2.65453 20.502 1.88953 20.502H1.51553C1.12453 20.502 0.835531 20.196 0.835531 19.839V9.826H3.28353V10.149C3.69153 9.962 4.11653 9.86 4.54153 9.86H5.45953C6.32653 9.86 7.04053 10.149 7.61853 10.744C8.28153 10.149 8.99553 9.86 9.76053 9.86ZM17.0823 9.843L19.7513 15.249L22.4203 9.843H25.1743L18.8163 22.644C18.5613 23.188 18.0173 23.528 17.4223 23.528H16.6743C16.1813 23.528 15.8923 23.018 16.1133 22.61H16.0963L18.3913 18.02L14.3453 9.843H17.0823Z" fill="#294F93"/>
</svg>
