<svg width="61" height="26" viewBox="0 0 61 26" fill="none" xmlns="http://www.w3.org/2000/svg">
<path fill-rule="evenodd" clip-rule="evenodd" d="M37.2803 1.19824C43.394 1.50901 48.2563 6.5716 48.2563 12.772C48.256 19.1722 43.0746 24.3603 36.6841 24.3604C30.4934 24.36 25.4382 19.4911 25.1279 13.3682L25.1133 12.772C25.1133 6.37157 30.2935 1.18245 36.6841 1.18213L37.2803 1.19824ZM43.2261 14.5151C42.9252 14.0549 42.308 13.9276 41.8491 14.2295C38.8119 16.2268 34.8869 16.2267 31.8501 14.2295C31.3918 13.9279 30.7759 14.0547 30.4746 14.5137C30.1721 14.9741 30.3019 15.5907 30.7588 15.8921C32.6084 17.1083 34.7294 17.7173 36.8496 17.7173C38.9695 17.7173 41.0894 17.1087 42.939 15.8921C43.3974 15.5909 43.5266 14.9744 43.2261 14.5151Z" fill="#54A4EF"/>
<path d="M57.786 12.6429C57.786 10.8677 56.3469 9.42857 54.5717 9.42857C52.7965 9.42857 51.3574 10.8677 51.3574 12.6429V19.7143H48.786V12.6429C48.786 9.4475 51.3763 6.85715 54.5717 6.85715C57.7671 6.85715 60.3574 9.4475 60.3574 12.6429V19.7143H57.786V12.6429Z" fill="#54A4EF"/>
<path d="M9.76053 9.86H10.6955C11.6305 9.86 12.4465 10.234 13.0075 10.965L12.9905 10.948C13.4835 11.543 13.7385 12.359 13.7385 13.226V19.091C13.7385 19.856 13.0925 20.502 12.3275 20.502H11.9705C11.6135 20.502 11.2905 20.196 11.2905 19.839V13.226C11.2905 13.005 11.2225 12.308 10.6955 12.308H9.93053C9.74353 12.308 9.19953 12.495 8.84253 12.852V12.835C8.57053 13.175 8.51953 13.583 8.51953 13.872V19.04C8.51953 19.822 7.87353 20.451 7.10853 20.451H6.73453C6.37753 20.451 6.05453 20.128 6.05453 19.788V13.226C6.05453 13.005 6.00353 12.308 5.45953 12.308H4.69453C4.50753 12.308 3.96353 12.495 3.60653 12.852V12.835C3.33453 13.175 3.28353 13.583 3.28353 13.872V19.091C3.28353 19.856 2.65453 20.502 1.88953 20.502H1.51553C1.12453 20.502 0.835531 20.196 0.835531 19.839V9.826H3.28353V10.149C3.69153 9.962 4.11653 9.86 4.54153 9.86H5.45953C6.32653 9.86 7.04053 10.149 7.61853 10.744C8.28153 10.149 8.99553 9.86 9.76053 9.86ZM17.0823 9.843L19.7513 15.249L22.4203 9.843H25.1743L18.8163 22.644C18.5613 23.188 18.0173 23.528 17.4223 23.528H16.6743C16.1813 23.528 15.8923 23.018 16.1133 22.61H16.0963L18.3913 18.02L14.3453 9.843H17.0823Z" fill="white"/>
</svg>
