<svg width="44" height="44" viewBox="0 0 44 44" fill="none" xmlns="http://www.w3.org/2000/svg">
<g clip-path="url(#clip0_14840_653)">
<path d="M44 21.9972C44 34.1444 34.15 43.9944 21.9972 43.9944C9.84439 43.9944 0 34.15 0 21.9972C0 9.84439 9.84999 0 21.9972 0C34.1444 0 44 9.84999 44 21.9972Z" fill="#54A4EF"/>
<path d="M36.3521 21.9972C36.3521 29.9254 29.9255 36.352 21.9973 36.352C14.0692 36.352 7.64258 29.9254 7.64258 21.9972C7.64258 14.069 14.0692 7.64246 21.9973 7.64246C29.9255 7.64246 36.3521 14.069 36.3521 21.9972Z" fill="white"/>
<path d="M27.8858 21.9972C27.8858 25.2469 25.2524 27.8859 21.9971 27.8859C18.7418 27.8859 16.1084 25.2525 16.1084 21.9972C16.1084 18.7419 18.7474 16.1085 21.9971 16.1085C25.2468 16.1085 27.8858 18.7419 27.8858 21.9972Z" fill="#54A4EF"/>
<path d="M20.5684 39.3551L20.9382 30.4801L21.3136 21.605L28.8159 26.3675L36.3239 31.13L26.3506 31.2365L20.5684 39.3551Z" fill="#294F93"/>
</g>
<defs>
<clipPath id="clip0_14840_653">
<rect width="44" height="44" fill="white"/>
</clipPath>
</defs>
</svg>
