<svg width="44" height="44" viewBox="0 0 44 44" fill="none" xmlns="http://www.w3.org/2000/svg">
<g clip-path="url(#clip0_14741_88738)">
<path d="M44 21.9972C44 34.1444 34.15 43.9944 21.9972 43.9944C9.84439 43.9944 0 34.15 0 21.9972C0 9.84439 9.84999 0 21.9972 0C34.1444 0 44 9.84999 44 21.9972Z" fill="#54A4EF"/>
<path d="M36.352 21.9971C36.352 29.9253 29.9254 36.3519 21.9972 36.3519C14.069 36.3519 7.64243 29.9253 7.64243 21.9971C7.64243 14.0689 14.069 7.64233 21.9972 7.64233C29.9254 7.64233 36.352 14.0689 36.352 21.9971Z" fill="#294F93"/>
<path d="M27.8859 21.9971C27.8859 25.2468 25.2525 27.8858 21.9972 27.8858C18.7419 27.8858 16.1085 25.2524 16.1085 21.9971C16.1085 18.7418 18.7475 16.1084 21.9972 16.1084C25.2469 16.1084 27.8859 18.7418 27.8859 21.9971Z" fill="#54A4EF"/>
<path d="M20.5685 39.3551L20.9382 30.4801L21.3136 21.605L28.816 26.3675L36.324 31.13L26.3507 31.2365L20.5685 39.3551Z" fill="white"/>
</g>
<defs>
<clipPath id="clip0_14741_88738">
<rect width="44" height="44" fill="white"/>
</clipPath>
</defs>
</svg>
