<svg width="126" height="26" viewBox="0 0 126 26" fill="none" xmlns="http://www.w3.org/2000/svg">
<g clip-path="url(#clip0_14741_88442)">
<path d="M48.4266 11.3855C49.717 13.5868 51.9941 14.2699 51.9941 14.2699L52.829 13.2072C50.3242 12.2205 49.6411 10.1711 49.4893 9.41205H51.9182C52.2977 9.41205 52.5254 9.10844 52.5254 8.80482C52.5254 8.50121 52.2218 8.19759 51.9182 8.19759H49.4134V7.28675H47.5158V8.19759H45.0109C44.6314 8.19759 44.4037 8.50121 44.4037 8.80482C44.4037 9.10844 44.7073 9.41205 45.0109 9.41205H47.4399C47.2881 10.1711 46.6049 12.2205 44.1001 13.2072L44.935 14.2699C44.935 14.2699 47.2881 13.5108 48.5025 11.3855H48.4266Z" fill="#333333"/>
<path d="M54.8784 7.28675C54.423 7.28675 53.9675 7.66627 53.9675 8.19759V10.3988H52.4495V11.6892H53.9675V15.6361C53.0567 15.1807 51.9181 14.8771 50.6278 14.8771C47.8193 14.8771 45.5422 16.3193 45.5422 18.0651C45.5422 19.8108 47.8193 21.253 50.6278 21.253C53.4362 21.253 55.4856 19.9627 55.7133 18.3687C55.7133 18.3687 55.7133 18.2928 55.7133 18.2169V8.3494C55.7133 7.89398 55.3338 7.43856 54.8025 7.43856L54.8784 7.28675ZM50.6278 19.8868C48.882 19.8868 47.4398 18.9759 47.4398 17.9133C47.4398 16.8506 48.882 15.9398 50.6278 15.9398C52.3736 15.9398 53.8157 16.8506 53.8157 17.9133C53.8157 18.9759 52.3736 19.8868 50.6278 19.8868Z" fill="#333333"/>
<path d="M118.713 11.3855C120.004 13.5868 122.281 14.2699 122.281 14.2699L123.116 13.2072C120.611 12.2205 119.928 10.1711 119.776 9.41205H122.205C122.584 9.41205 122.812 9.10844 122.812 8.80482C122.812 8.50121 122.508 8.19759 122.205 8.19759H119.7V7.28675H117.802V8.19759H115.298C114.918 8.19759 114.69 8.50121 114.69 8.80482C114.69 9.10844 114.994 9.41205 115.298 9.41205H117.726C117.575 10.1711 116.892 12.2205 114.387 13.2072L115.222 14.2699C115.222 14.2699 117.575 13.5108 118.789 11.3855H118.713Z" fill="#333333"/>
<path d="M126 8.19759C126 7.74217 125.621 7.28675 125.089 7.28675C124.558 7.28675 124.178 7.66627 124.178 8.19759V10.3988H122.66V11.6892H124.178V15.6361C123.268 15.1807 122.129 14.8771 120.839 14.8771C118.03 14.8771 115.753 16.3193 115.753 18.0651C115.753 19.8108 118.03 21.253 120.839 21.253C123.647 21.253 125.697 19.9627 125.924 18.3687C125.924 18.3687 125.924 18.2928 125.924 18.2169V8.3494L126 8.19759ZM120.839 19.8868C119.093 19.8868 117.651 18.9759 117.651 17.9133C117.651 16.8506 119.093 15.9398 120.839 15.9398C122.584 15.9398 124.027 16.8506 124.027 17.9133C124.027 18.9759 122.584 19.8868 120.839 19.8868Z" fill="#333333"/>
<path d="M69.1482 8.19759C69.1482 7.74217 68.7687 7.28675 68.2374 7.28675C67.7061 7.28675 67.3265 7.66627 67.3265 8.19759V12.2205C66.8711 12.6 66.2639 12.6 66.2639 12.6H65.0494H60.4952C60.1916 12.6 59.9639 12.3723 59.9639 12.0687V8.50121C59.9639 8.04579 59.5844 7.59037 59.0531 7.59037C58.5217 7.59037 58.1422 7.96988 58.1422 8.50121V12.9036C58.1422 13.4349 58.6735 13.8904 59.2049 13.8904C59.7362 13.8904 59.2049 13.8904 59.2808 13.8904H65.429C66.3398 13.8904 66.8711 13.5868 67.2506 13.359V14.6494H68.9964V11.2337H70.5904V9.94338H68.9964V8.19759H69.1482Z" fill="#333333"/>
<path d="M59.129 15.3325V19.8108C59.129 20.3422 59.5844 20.7976 60.1916 20.7976H68.0856H69.0724V16.4711V15.3325H58.9772H59.129ZM67.4025 16.547V19.5831H61.4061C61.1025 19.5831 60.8748 19.3554 60.8748 19.0518V16.547H67.4025Z" fill="#333333"/>
<path d="M83.9494 16.4711H79.1675V15.1048C79.1675 14.6494 78.788 14.194 78.2567 14.194C77.7253 14.194 77.3458 14.5735 77.3458 15.1048V16.4711H72.5639C72.1844 16.4711 71.9567 16.7747 71.9567 17.0783C71.9567 17.3819 72.2603 17.6855 72.5639 17.6855H83.9494C84.329 17.6855 84.5567 17.3819 84.5567 17.0783C84.5567 16.7747 84.2531 16.4711 83.9494 16.4711Z" fill="#333333"/>
<path d="M73.0193 12.3723C73.0193 12.9795 73.4748 13.4349 74.082 13.4349H82.8109C83.1145 13.4349 83.4181 13.1313 83.4181 12.8277C83.4181 12.5241 83.1145 12.2205 82.8109 12.2205H75.1446C74.841 12.2205 74.6133 11.9928 74.6133 11.6892V8.88073H82.735C83.1145 8.88073 83.3422 8.57711 83.3422 8.2735C83.3422 7.96988 83.0386 7.66627 82.735 7.66627H73.6266H72.7916V12.4482L73.0193 12.3723Z" fill="#333333"/>
<path d="M98.1435 16.547H96.6254C96.8531 16.3193 97.6881 15.4084 97.6881 13.0554V8.65301C97.6881 8.04579 97.2326 7.59036 96.6254 7.59036H87.8206C87.4411 7.59036 87.2134 7.89398 87.2134 8.19759C87.2134 8.50121 87.517 8.80482 87.8206 8.80482H95.335C95.6387 8.80482 95.8664 9.03253 95.8664 9.33615V12.9795V14.7253C95.8664 14.7253 95.8664 15.8639 95.4109 16.3952H94.1206V13.0554C94.1206 12.6 93.7411 12.1446 93.2097 12.1446C92.6784 12.1446 92.2989 12.5241 92.2989 13.0554V16.3952H90.5531V13.0554C90.5531 12.6 90.1736 12.1446 89.6423 12.1446C89.1109 12.1446 88.7314 12.5241 88.7314 13.0554V16.3952H86.6061C86.2266 16.3952 85.9989 16.6988 85.9989 17.0024C85.9989 17.306 86.3025 17.6096 86.6061 17.6096H97.9158C98.2953 17.6096 98.523 17.306 98.523 17.0024C98.523 16.6988 98.2194 16.3952 97.9158 16.3952L98.1435 16.547Z" fill="#333333"/>
<path d="M112.337 13.7386H101.028C100.648 13.7386 100.421 14.0422 100.421 14.3458C100.421 14.6494 100.724 14.953 101.028 14.953H103.76V16.3193H101.939C101.559 16.3193 101.331 16.6229 101.331 16.9265C101.331 17.2301 101.635 17.5337 101.939 17.5337H109.757C110.06 17.5337 110.288 17.7614 110.288 18.0651V20.7217H112.034V17.306C112.034 16.6988 111.578 16.2434 110.971 16.2434H109.908V14.8771H112.413C112.793 14.8771 113.021 14.5735 113.021 14.2699C113.021 13.9663 112.717 13.6627 112.413 13.6627L112.337 13.7386ZM108.087 16.3952H105.506V15.0289H108.087V16.3952Z" fill="#333333"/>
<path d="M106.645 13.0554C109.453 13.0554 111.73 11.6892 111.73 10.0952C111.73 8.50121 109.453 7.13494 106.645 7.13494C103.836 7.13494 101.559 8.50121 101.559 10.0952C101.559 11.6892 103.836 13.0554 106.645 13.0554ZM106.645 8.2735C108.39 8.2735 109.833 9.10844 109.833 10.1711C109.833 11.2337 108.39 12.0687 106.645 12.0687C104.899 12.0687 103.457 11.2337 103.457 10.1711C103.457 9.10844 104.899 8.2735 106.645 8.2735Z" fill="#333333"/>
<path d="M41.6711 13.5868H30.2856C29.9061 13.5868 29.6783 13.8904 29.6783 14.194C29.6783 14.4976 29.982 14.8012 30.2856 14.8012H34.9916V15.4843C32.5627 15.7121 30.6651 16.8506 30.6651 18.2169C30.6651 19.5831 33.0181 21.0253 35.9783 21.0253C38.9386 21.0253 41.2916 19.8108 41.2916 18.2169C41.2916 16.6229 39.394 15.7121 36.9651 15.4843V14.8012H41.747C42.1265 14.8012 42.3542 14.4976 42.3542 14.194C42.3542 13.8904 42.0506 13.5868 41.747 13.5868H41.6711ZM39.2422 18.2169C39.2422 19.2036 37.8 19.9627 35.9783 19.9627C34.1567 19.9627 32.7145 19.2036 32.7145 18.2169C32.7145 17.2301 34.1567 16.4711 35.9783 16.4711C37.8 16.4711 39.2422 17.2301 39.2422 18.2169Z" fill="#333333"/>
<path d="M30.1338 11.6892L30.5892 12.8277C33.5495 12.8277 35.1434 11.9169 35.9784 10.9301C36.8133 11.9169 38.3314 12.8277 41.3675 12.8277L41.8229 11.6892C41.8229 11.6892 38.0278 11.6892 37.1169 9.48796H40.6844C41.0639 9.48796 41.2916 9.18434 41.2916 8.88073C41.2916 8.57711 40.988 8.2735 40.6844 8.2735H36.8892V7.36265H34.9916V8.2735H31.1964C30.8169 8.2735 30.5892 8.57711 30.5892 8.88073C30.5892 9.18434 30.8928 9.48796 31.1964 9.48796H34.8398C34.0049 11.6892 30.1338 11.6892 30.1338 11.6892Z" fill="#333333"/>
<path d="M18.2169 1.13856C17.6856 9.49949e-07 16.0916 -0.303614 14.5735 0.379519C13.0554 1.06265 12.2205 2.58072 12.7518 3.64337C13.2832 4.78193 14.953 5.08554 16.4711 4.40241C17.9892 3.71928 18.8241 2.20121 18.2928 1.13856H18.2169Z" fill="#E7290F"/>
<path d="M14.1182 23.1506C14.6495 22.9988 12.8278 23.8337 12.2965 24.0615C10.8543 24.8205 9.10851 25.2759 7.74225 25.5036C5.00971 26.1108 2.73261 25.6554 1.36634 24.1374C-1.29029 21.1012 1.13863 14.7253 6.7555 9.86747C9.56393 7.43856 12.6001 5.92048 15.3326 5.31325C16.6989 5.00964 17.9133 5.00964 19.0519 5.23735C19.0519 5.23735 22.088 5.76868 20.57 9.48795C20.57 9.48795 16.6989 17.8374 5.84465 22.4675C5.84465 22.4675 12.8278 17.6096 16.1675 11.4614C16.1675 11.4614 18.8242 7.05904 14.7254 7.13494C14.7254 7.13494 12.9796 7.13494 10.323 8.65301C7.96996 9.94337 5.00971 12.2964 3.33983 16.3952C3.33983 16.3952 0.5314 23.0747 8.27357 23.7578C8.27357 23.7578 11.082 23.9855 13.9663 22.9988L14.1182 23.1506Z" fill="#004998"/>
<path d="M20.2664 11.4614C19.811 12.1446 18.976 13.359 18.1411 14.4217C19.1278 14.4976 20.1146 14.8012 19.4314 16.6988C19.4314 16.6988 18.2929 19.659 14.9531 22.6952C14.9531 22.6952 20.6459 19.4313 22.6194 15.0289C22.6194 15.0289 24.9724 10.4747 20.2664 11.4614Z" fill="#10A035"/>
</g>
<defs>
<clipPath id="clip0_14741_88442">
<rect width="126" height="25.8072" fill="white"/>
</clipPath>
</defs>
</svg>
