<svg width="305" height="103" viewBox="0 0 305 103" fill="none" xmlns="http://www.w3.org/2000/svg">
<g style="mix-blend-mode:soft-light">
<path d="M50.1601 33.12C54.1601 33.12 57.4401 33 60.0001 32.76C62.6401 32.52 64.7201 32.16 66.2401 31.68C67.8401 31.12 68.9201 30.44 69.4801 29.64C70.1201 28.84 70.4401 27.84 70.4401 26.64C70.4401 25.44 70.0801 24.44 69.3601 23.64C68.7201 22.76 67.4001 22.08 65.4001 21.6C63.4001 21.04 60.6001 20.64 57.0001 20.4C53.4001 20.08 48.7201 19.92 42.9601 19.92H3.00011C1.32011 19.92 0.480108 19.12 0.480108 17.52V7.91997C0.480108 6.31997 1.32011 5.51997 3.00011 5.51997H42.3601C52.2001 5.51997 60.3601 5.99997 66.8401 6.95996C73.3201 7.91997 78.4801 9.31997 82.3201 11.16C86.1601 12.92 88.8401 15.16 90.3601 17.88C91.9601 20.52 92.7601 23.52 92.7601 26.88C92.7601 29.92 92.1601 32.64 90.9601 35.04C89.7601 37.44 87.8401 39.52 85.2001 41.28C82.5601 43.04 79.0801 44.44 74.7601 45.48C70.5201 46.44 65.2801 47.08 59.0401 47.4V52.68H92.1601C93.8401 52.68 94.6801 53.48 94.6801 55.08V67.44C94.6801 69.12 93.8401 69.96 92.1601 69.96H2.52011C0.840108 69.96 0.000107676 69.12 0.000107676 67.44V55.08C0.000107676 53.48 0.840108 52.68 2.52011 52.68H35.7601V47.4C29.6801 47.08 24.5601 46.4 20.4001 45.36C16.2401 44.24 12.8401 42.84 10.2001 41.16C7.64011 39.4 5.80011 37.36 4.68011 35.04C3.56011 32.64 3.00011 29.92 3.00011 26.88V25.92C3.00011 24.32 3.80011 23.52 5.40011 23.52H22.8001C24.4801 23.52 25.3201 24.32 25.3201 25.92V26.64C25.3201 27.84 25.6001 28.84 26.1601 29.64C26.8001 30.44 27.8401 31.12 29.2801 31.68C30.8001 32.16 32.8401 32.52 35.4001 32.76C38.0401 33 41.3601 33.12 45.3601 33.12H50.1601ZM91.0801 85.08C92.6801 85.08 93.4801 85.88 93.4801 87.48V99.12C93.4801 100.72 92.6801 101.52 91.0801 101.52H4.08011C2.48011 101.52 1.68011 100.72 1.68011 99.12V78.36C1.68011 76.76 2.48011 75.96 4.08011 75.96H22.4401C24.1201 75.96 24.9601 76.76 24.9601 78.36V85.08H91.0801ZM197.738 81.72C199.338 81.72 200.138 82.52 200.138 84.12V98.52C200.138 100.12 199.338 100.92 197.738 100.92H113.018C111.418 100.92 110.618 100.12 110.618 98.52V70.68C110.618 69.08 111.418 68.28 113.018 68.28H131.138C132.738 68.28 133.538 69.08 133.538 70.68V81.72H197.738ZM129.698 58.92C129.218 60.2 128.218 60.84 126.698 60.84H107.858C106.898 60.84 106.218 60.6 105.818 60.12C105.498 59.56 105.538 58.84 105.938 57.96L124.418 22.44H109.178C107.498 22.44 106.658 21.64 106.658 20.04V8.39997C106.658 6.79997 107.498 5.99997 109.178 5.99997H163.658C165.338 5.99997 166.178 6.79997 166.178 8.39997V20.04C166.178 21.64 165.338 22.44 163.658 22.44H149.258L129.698 58.92ZM179.258 69.48C177.578 69.48 176.738 68.68 176.738 67.08V44.04H165.098C163.498 44.04 162.698 43.24 162.698 41.64V28.8C162.698 27.12 163.498 26.28 165.098 26.28H176.738V6.71997C176.738 5.03996 177.578 4.19996 179.258 4.19996H196.418C198.098 4.19996 198.938 5.03996 198.938 6.71997V67.08C198.938 68.68 198.098 69.48 196.418 69.48H179.258ZM146.738 60.12C145.378 60.12 144.458 59.48 143.978 58.2L140.258 50.04C139.778 49 139.818 47.96 140.378 46.92L149.618 29.64C150.098 28.76 150.658 28.32 151.298 28.32C151.938 28.32 152.458 28.76 152.858 29.64L167.378 57.36C168.178 59.2 167.578 60.12 165.578 60.12H146.738ZM272.115 72.24C272.115 77.52 271.355 82.04 269.835 85.8C268.395 89.48 266.355 92.48 263.715 94.8C261.155 97.12 258.035 98.8 254.355 99.84C250.755 100.96 246.795 101.52 242.475 101.52C238.155 101.52 234.195 100.96 230.595 99.84C226.995 98.8 223.875 97.12 221.235 94.8C218.675 92.48 216.675 89.48 215.235 85.8C213.795 82.04 213.075 77.52 213.075 72.24V63.72C213.075 58.44 213.795 53.96 215.235 50.28C216.755 46.52 218.795 43.48 221.355 41.16C223.995 38.84 227.115 37.16 230.715 36.12C234.395 35 238.395 34.44 242.715 34.44C247.035 34.44 250.995 35 254.595 36.12C258.195 37.16 261.275 38.84 263.835 41.16C266.475 43.48 268.515 46.52 269.955 50.28C271.395 53.96 272.115 58.44 272.115 63.72V72.24ZM285.195 102.12C283.515 102.12 282.675 101.32 282.675 99.72V6.71997C282.675 5.03996 283.515 4.19996 285.195 4.19996H302.355C304.035 4.19996 304.875 5.03996 304.875 6.71997V99.72C304.875 101.32 304.035 102.12 302.355 102.12H285.195ZM210.675 15.36C210.675 13.68 211.515 12.84 213.195 12.84H231.795V2.51996C231.795 0.839966 232.635 -3.29018e-05 234.315 -3.29018e-05H250.875C252.555 -3.29018e-05 253.395 0.839966 253.395 2.51996V12.84H270.795C272.475 12.84 273.315 13.68 273.315 15.36V28.2C273.315 29.88 272.475 30.72 270.795 30.72H213.195C211.515 30.72 210.675 29.88 210.675 28.2V15.36ZM250.875 63.72C250.875 60.12 250.235 57.32 248.955 55.32C247.675 53.24 245.595 52.2 242.715 52.2C239.755 52.2 237.595 53.24 236.235 55.32C234.875 57.32 234.195 60.12 234.195 63.72V72.24C234.195 75.84 234.835 78.68 236.115 80.76C237.475 82.76 239.595 83.76 242.475 83.76C245.435 83.76 247.555 82.76 248.835 80.76C250.195 78.68 250.875 75.84 250.875 72.24V63.72Z" fill="white" fill-opacity="0.5"/>
</g>
</svg>
