<svg width="315" height="151" viewBox="0 0 315 151" fill="none" xmlns="http://www.w3.org/2000/svg">
<g style="mix-blend-mode:soft-light">
<path d="M3.86405 146.464C1.28805 146.464 5.11706e-05 145.176 5.11706e-05 142.6V121.992C5.11706e-05 119.539 1.28805 118.312 3.86405 118.312H141.312C143.888 118.312 145.176 119.539 145.176 121.992V142.6C145.176 145.176 143.888 146.464 141.312 146.464H3.86405ZM36.8001 92.552C35.9414 94.5147 34.5307 95.496 32.5681 95.496H5.15205C3.68005 95.496 2.57605 95.128 1.84005 94.392C1.22672 93.5333 1.22672 92.4293 1.84005 91.08L39.1921 5.70398C40.0507 3.74132 41.4614 2.75999 43.4241 2.75999H72.6801C74.0294 2.75999 74.8881 3.25065 75.2561 4.23198C75.7467 5.09065 75.6854 6.19465 75.0721 7.54398L36.8001 92.552ZM96.9681 72.496C95.9867 70.656 95.9254 68.7547 96.7841 66.792L109.112 39.376C109.725 38.1493 110.584 37.536 111.688 37.536C112.792 37.536 113.651 38.088 114.264 39.192L143.888 91.08C144.624 92.4293 144.685 93.5333 144.072 94.392C143.459 95.128 142.416 95.496 140.944 95.496H112.608C111.504 95.496 110.584 95.2507 109.848 94.76C109.112 94.1467 108.499 93.4107 108.008 92.552L96.9681 72.496ZM79.1201 92.552C78.2614 94.5147 76.8507 95.496 74.8881 95.496H47.4721C46.0001 95.496 44.8961 95.128 44.1601 94.392C43.5467 93.5333 43.5467 92.4293 44.1601 91.08L81.5121 5.70398C82.2481 3.74132 83.6587 2.75999 85.7441 2.75999H115C116.349 2.75999 117.208 3.25065 117.576 4.23198C118.067 5.09065 118.005 6.19465 117.392 7.54398L79.1201 92.552ZM271.366 150.144C268.79 150.144 267.502 148.917 267.502 146.464V135.424C261.368 139.227 253.15 142.171 242.846 144.256C232.664 146.341 221.256 147.384 208.622 147.384H166.302C165.075 147.384 164.094 147.077 163.358 146.464C162.622 145.851 162.315 144.869 162.438 143.52L167.774 39.928C168.019 37.5973 169.307 36.432 171.638 36.432H197.582C200.28 36.432 201.568 37.72 201.446 40.296L197.214 120.152H212.302C222.606 120.152 232.603 119.355 242.294 117.76C252.107 116.165 260.51 113.589 267.502 110.032V3.86398C267.502 1.28798 268.79 -2.24113e-05 271.366 -2.24113e-05H297.678C300.254 -2.24113e-05 301.542 1.28798 301.542 3.86398V54.648H311.11C313.563 54.648 314.79 55.936 314.79 58.512V82.984C314.79 85.4373 313.563 86.664 311.11 86.664H301.542V146.464C301.542 148.917 300.254 150.144 297.678 150.144H271.366ZM160.598 7.35998C160.598 4.90665 161.886 3.67999 164.462 3.67999H249.102C251.678 3.67999 252.966 4.90665 252.966 7.35998V27.232C252.966 29.6853 251.678 30.912 249.102 30.912H164.462C161.886 30.912 160.598 29.6853 160.598 27.232V7.35998Z" fill="white" fill-opacity="0.5"/>
</g>
</svg>
