<svg width="311" height="151" viewBox="0 0 311 151" fill="none" xmlns="http://www.w3.org/2000/svg">
<g style="mix-blend-mode:soft-light">
<path d="M115.368 73.784C112.915 73.784 111.688 72.5573 111.688 70.104V4.60001C111.688 2.024 112.915 0.736001 115.368 0.736001H142.048C144.501 0.736001 145.728 2.024 145.728 4.60001V70.104C145.728 72.5573 144.501 73.784 142.048 73.784H115.368ZM34.224 28.52C36.8 28.52 38.088 29.808 38.088 32.384V36.248C38.088 44.5893 42.504 48.76 51.336 48.76C60.4133 48.76 64.952 44.5893 64.952 36.248C64.952 31.464 63.112 28.0293 59.432 25.944C55.752 23.8587 49.864 22.816 41.768 22.816H3.86398C1.28798 22.816 -1.93119e-05 21.5893 -1.93119e-05 19.136V3.864C-1.93119e-05 1.28801 1.28798 1.00136e-05 3.86398 1.00136e-05H40.848C50.048 1.00136e-05 58.2667 0.674675 65.504 2.02401C72.7413 3.25067 78.8133 5.336 83.72 8.28C88.7493 11.1013 92.552 14.8427 95.128 19.504C97.8267 24.0427 99.176 29.5627 99.176 36.064C99.176 42.4427 98.0106 47.9013 95.68 52.44C93.3493 56.9787 90.0373 60.72 85.744 63.664C81.5733 66.4853 76.544 68.5707 70.656 69.92C64.8907 71.2693 58.4506 71.944 51.336 71.944C44.344 71.944 37.904 71.2693 32.016 69.92C26.2506 68.5707 21.2826 66.4853 17.112 63.664C12.9413 60.72 9.69065 56.9787 7.35998 52.44C5.02931 47.9013 3.86398 42.4427 3.86398 36.064V32.384C3.86398 29.808 5.09065 28.52 7.54398 28.52H34.224ZM12.144 149.96C9.69065 149.96 8.46398 148.733 8.46398 146.28V112.792C8.46398 110.216 9.69065 108.928 12.144 108.928H46V101.2H12.144C9.69065 101.2 8.46398 99.9733 8.46398 97.52V86.848C8.46398 84.3947 9.69065 83.168 12.144 83.168H73.232C75.5627 83.168 76.728 84.3947 76.728 86.848V119.6C76.728 122.176 75.5627 123.464 73.232 123.464H39.376V131.56H79.488C81.9413 131.56 83.168 132.787 83.168 135.24V146.28C83.168 148.733 81.9413 149.96 79.488 149.96H12.144ZM87.216 109.664C84.7627 109.664 83.536 108.437 83.536 105.984V86.848C83.536 84.3947 84.7627 83.168 87.216 83.168H142.048C144.501 83.168 145.728 84.3947 145.728 86.848V147.2C145.728 149.653 144.501 150.88 142.048 150.88H115.368C112.915 150.88 111.688 149.653 111.688 147.2V109.664H87.216ZM297.309 94.76C296.819 97.0907 295.469 98.1947 293.261 98.072H266.397C265.171 97.9493 264.251 97.5813 263.637 96.968C263.024 96.232 262.84 95.2507 263.085 94.024C263.699 91.448 264.251 87.952 264.741 83.536C265.355 78.9973 265.845 73.968 266.213 68.448C266.704 62.928 267.072 57.1627 267.317 51.152C267.685 45.0187 267.869 39.1307 267.869 33.488H174.581C172.128 33.488 170.901 32.2613 170.901 29.808V8.28C170.901 5.82667 172.128 4.60001 174.581 4.60001H300.437C303.013 4.60001 304.301 5.82667 304.301 8.28L303.565 31.648C303.197 41.952 302.829 50.416 302.461 57.04C302.093 63.664 301.664 69.2453 301.173 73.784C300.683 78.3227 300.131 82.1867 299.517 85.376C298.904 88.4427 298.168 91.5707 297.309 94.76ZM169.429 147.2C166.853 147.2 165.565 145.912 165.565 143.336V122.728C165.565 120.275 166.853 119.048 169.429 119.048H209.357V72.496C209.357 70.0427 210.584 68.816 213.037 68.816H241.373C243.827 68.816 245.053 70.0427 245.053 72.496V119.048H306.877C309.453 119.048 310.741 120.275 310.741 122.728V143.336C310.741 145.912 309.453 147.2 306.877 147.2H169.429Z" fill="white" fill-opacity="0.5"/>
</g>
</svg>
